<?xml version="1.0" standalone="no"?>
<!DOCTYPE svg PUBLIC "-//W3C//DTD SVG 20010904//EN"
 "http://www.w3.org/TR/2001/REC-SVG-20010904/DTD/svg10.dtd">
<svg version="1.0" xmlns="http://www.w3.org/2000/svg"
 width="981.000000pt" height="970.000000pt" viewBox="0 0 981.000000 970.000000"
 preserveAspectRatio="xMidYMid meet">

<g transform="translate(0.000000,970.000000) scale(0.100000,-0.100000)"
fill="#000000" stroke="none">
<path d="M5355 9683 c-230 -20 -553 -89 -740 -158 -132 -48 -357 -158 -472
-228 -273 -170 -550 -442 -729 -718 -175 -269 -289 -551 -368 -907 -121 -546
-94 -1013 86 -1481 194 -502 594 -968 1102 -1283 93 -58 111 -66 119 -53 7 13
-12 37 -80 108 -319 330 -500 683 -559 1087 -23 159 -15 450 16 604 45 226
129 456 237 649 30 53 59 97 66 97 7 0 22 -8 34 -18 l22 -17 -51 -90 c-386
-688 -349 -1442 100 -2038 86 -114 257 -297 278 -297 20 0 18 10 -16 60 -143
211 -211 440 -196 652 21 301 142 570 330 731 92 80 142 113 360 241 110 64
235 142 279 174 307 219 508 581 524 944 10 219 -20 338 -161 638 -105 223
-142 324 -156 434 -18 134 12 282 87 431 76 148 181 251 381 368 l105 62 -39
7 c-39 7 -483 8 -559 1z m-1005 -1563 c56 -66 107 -120 112 -120 5 0 73 27
151 60 77 33 143 58 145 55 2 -2 -32 -64 -77 -138 -45 -74 -81 -138 -81 -141
0 -3 47 -61 105 -128 58 -66 104 -122 102 -124 -1 -2 -69 12 -150 31 -81 19
-153 35 -161 35 -7 0 -51 -63 -97 -140 -97 -160 -91 -162 -104 38 -4 64 -11
126 -15 137 -7 17 -33 27 -151 54 -79 18 -150 36 -156 40 -7 4 52 34 135 68
l147 62 0 58 c0 32 -4 106 -9 166 -4 59 -6 107 -3 107 3 0 51 -54 107 -120z"/>
<path d="M187 7243 c-275 -829 -227 -1584 141 -2223 189 -329 471 -626 792
-836 381 -249 750 -397 1135 -455 165 -25 451 -30 610 -10 397 50 792 198
1130 424 217 145 440 335 418 357 -9 10 -47 -5 -175 -68 -217 -108 -367 -159
-583 -199 -118 -21 -362 -28 -497 -13 -425 46 -840 254 -1183 592 l-99 99 26
26 27 26 115 -110 c547 -526 1208 -692 1880 -472 121 39 426 182 426 199 0 20
-23 20 -87 1 -128 -38 -249 -54 -373 -48 -141 6 -241 32 -376 96 -231 110
-382 245 -483 431 -60 112 -86 190 -153 454 -88 351 -139 482 -250 642 -62 90
-228 252 -331 322 -97 67 -241 136 -343 164 -68 19 -105 22 -259 22 -152 0
-206 -4 -345 -28 -289 -49 -425 -45 -577 16 -175 71 -353 248 -427 425 -14 33
-41 121 -60 193 -20 73 -37 134 -39 137 -2 2 -29 -72 -60 -164z m1345 -1571
l66 -74 147 66 c81 37 150 65 152 63 2 -2 -29 -60 -68 -128 -39 -68 -75 -132
-80 -141 -7 -13 14 -42 102 -138 61 -67 110 -122 108 -124 -2 -2 -76 11 -164
30 -88 18 -160 32 -161 31 -1 -1 -36 -63 -78 -137 -43 -74 -81 -138 -85 -143
-4 -4 -15 66 -24 155 -9 93 -21 164 -28 169 -6 3 -73 19 -148 33 -75 15 -144
30 -155 33 -13 3 30 27 136 75 l154 69 -17 152 c-10 84 -18 159 -18 167 -1 15
39 -24 161 -158z"/>
<path d="M7095 7174 c-130 -14 -397 -58 -500 -83 -378 -93 -730 -272 -1012
-515 -419 -361 -714 -878 -843 -1481 -20 -94 -20 -100 -4 -112 10 -7 20 -13
23 -13 3 0 30 52 60 115 109 230 243 417 428 595 281 271 644 438 1063 490
182 22 501 8 688 -31 45 -9 52 -14 52 -34 0 -47 -8 -53 -53 -43 -165 37 -427
54 -598 39 -586 -51 -1042 -314 -1361 -786 -73 -108 -208 -362 -208 -392 0
-28 19 -19 51 25 216 300 475 441 846 459 308 14 487 -59 822 -336 316 -260
470 -349 703 -404 79 -18 123 -21 298 -22 194 0 210 2 305 28 122 34 237 88
330 156 39 28 160 141 270 250 210 209 292 272 408 316 180 67 441 54 610 -32
69 -34 124 -72 234 -160 51 -40 94 -73 97 -73 7 0 -42 156 -96 300 -353 949
-1043 1557 -1948 1717 -124 22 -180 26 -385 28 -132 2 -258 1 -280 -1z m436
-1048 c11 -14 25 -26 30 -26 6 0 74 29 151 65 77 36 143 64 145 61 2 -2 -30
-65 -72 -140 -41 -75 -75 -139 -75 -142 0 -4 50 -60 111 -125 61 -66 104 -119
96 -119 -8 0 -74 11 -147 25 -73 14 -141 25 -151 25 -13 0 -40 -40 -95 -141
-42 -77 -78 -138 -80 -136 -4 4 -44 287 -44 311 0 8 -55 23 -152 41 -84 15
-158 30 -165 34 -6 3 56 37 138 75 82 38 149 74 149 80 0 6 -9 81 -20 166 -11
85 -20 156 -20 158 0 5 179 -185 201 -212z"/>
<path d="M5155 4814 c-16 -2 -81 -9 -142 -15 -93 -9 -113 -14 -113 -28 0 -31
15 -37 115 -49 301 -37 609 -146 843 -298 450 -294 754 -789 847 -1381 l7 -43
-39 0 -38 0 -17 98 c-39 224 -136 491 -250 682 -304 510 -773 800 -1414 874
-45 6 -52 4 -57 -13 -4 -16 7 -23 72 -46 328 -117 538 -331 659 -675 44 -127
56 -208 49 -356 -6 -157 -25 -229 -136 -526 -93 -248 -126 -371 -142 -520 -26
-250 49 -562 188 -787 57 -91 203 -241 293 -300 36 -23 169 -93 295 -155 257
-127 351 -188 425 -276 95 -115 163 -295 176 -464 8 -107 -14 -221 -75 -393
-56 -156 -68 -155 119 -12 530 403 896 921 1041 1473 94 362 104 741 28 1108
-47 231 -123 438 -254 698 -150 297 -292 497 -495 700 -368 369 -833 598
-1376 680 -132 20 -528 36 -609 24z m1703 -2139 l153 74 -52 -97 c-28 -53 -65
-120 -81 -149 l-29 -52 117 -121 c64 -66 111 -120 104 -120 -7 0 -78 12 -158
26 -79 14 -149 23 -156 21 -6 -3 -45 -68 -86 -146 -86 -162 -78 -165 -105 42
-14 101 -23 141 -34 147 -9 4 -77 18 -151 30 -74 12 -141 25 -148 29 -8 5 42
34 132 76 119 56 146 73 146 90 0 11 -9 83 -20 160 -11 77 -20 145 -19 150 0
6 52 -45 117 -112 l117 -122 153 74z"/>
<path d="M4721 4441 c-11 -7 -10 -27 8 -122 68 -368 54 -682 -46 -994 -129
-403 -402 -751 -792 -1010 -96 -63 -289 -171 -295 -164 -2 2 -10 17 -19 34
l-15 29 112 61 c325 176 559 386 743 667 203 309 300 695 273 1083 -14 196
-51 395 -74 395 -10 0 -15 -36 -19 -142 -7 -177 -30 -278 -97 -414 -57 -117
-134 -219 -244 -321 -135 -126 -274 -204 -441 -249 -76 -20 -212 -22 -720 -14
-220 4 -248 3 -341 -18 -384 -84 -728 -350 -861 -665 -45 -107 -76 -240 -108
-465 -31 -219 -55 -314 -101 -408 -81 -165 -249 -305 -452 -378 -87 -31 -87
-31 -298 -31 l-210 0 83 -63 c987 -744 2123 -819 3048 -200 292 196 637 543
817 823 192 298 313 622 364 980 23 162 23 485 0 650 -36 251 -91 466 -173
675 -40 100 -119 270 -126 270 -1 0 -8 -4 -16 -9z m-1502 -2181 c79 39 146 68
148 66 2 -2 -30 -65 -71 -140 -42 -75 -76 -141 -76 -146 0 -6 49 -63 110 -127
60 -64 108 -118 107 -119 -1 -2 -72 11 -157 27 -85 16 -159 28 -165 25 -5 -2
-43 -65 -84 -140 -41 -75 -78 -133 -81 -129 -4 5 -15 77 -26 161 -17 148 -19
153 -43 159 -14 3 -88 18 -166 33 l-140 27 150 72 c82 40 150 73 151 74 1 1
-6 65 -17 142 -28 213 -36 208 99 68 l117 -122 144 69z"/>
</g>
</svg>
